<svg version="1.2" xmlns="http://www.w3.org/2000/svg" viewBox="0 0 426 426" width="426" height="426">
	<title>noun-line-2366601-svg</title>
	<style>
		.s0 { fill: #000000 } 
	</style>
	<g id="Layer">
		<path id="Layer" class="s0" d="m21.1 10.7c0 5.7-4.7 10.3-10.4 10.3-5.8 0-10.4-4.6-10.4-10.3 0-5.8 4.6-10.4 10.4-10.4 5.7 0 10.4 4.6 10.4 10.4z"/>
		<path id="Layer" class="s0" d="m102 10.7c0 5.7-4.7 10.3-10.4 10.3-5.7 0-10.4-4.6-10.4-10.3 0-5.8 4.7-10.4 10.4-10.4 5.7 0 10.4 4.6 10.4 10.4z"/>
		<path id="Layer" class="s0" d="m182.9 10.7c0 5.7-4.6 10.3-10.4 10.3-5.7 0-10.4-4.6-10.4-10.3 0-5.8 4.7-10.4 10.4-10.4 5.8 0 10.4 4.6 10.4 10.4z"/>
		<path id="Layer" class="s0" d="m263.9 10.7c0 5.7-4.7 10.3-10.4 10.3-5.8 0-10.4-4.6-10.4-10.3 0-5.8 4.6-10.4 10.4-10.4 5.7 0 10.4 4.6 10.4 10.4z"/>
		<path id="Layer" class="s0" d="m344.8 10.7c0 5.7-4.7 10.3-10.4 10.3-5.7 0-10.4-4.6-10.4-10.3 0-5.8 4.7-10.4 10.4-10.4 5.7 0 10.4 4.6 10.4 10.4z"/>
		<path id="Layer" class="s0" d="m425.7 10.7c0 5.7-4.6 10.3-10.4 10.3-5.7 0-10.4-4.6-10.4-10.3 0-5.8 4.7-10.4 10.4-10.4 5.8 0 10.4 4.6 10.4 10.4z"/>
		<path id="Layer" class="s0" d="m21.1 91.6c0 5.7-4.7 10.4-10.4 10.4-5.8 0-10.4-4.7-10.4-10.4 0-5.7 4.6-10.4 10.4-10.4 5.7 0 10.4 4.7 10.4 10.4z"/>
		<path id="Layer" class="s0" d="m102 91.6c0 5.7-4.7 10.4-10.4 10.4-5.7 0-10.4-4.7-10.4-10.4 0-5.7 4.7-10.4 10.4-10.4 5.7 0 10.4 4.7 10.4 10.4z"/>
		<path id="Layer" class="s0" d="m182.9 91.6c0 5.7-4.6 10.4-10.4 10.4-5.7 0-10.4-4.7-10.4-10.4 0-5.7 4.7-10.4 10.4-10.4 5.8 0 10.4 4.7 10.4 10.4z"/>
		<path id="Layer" class="s0" d="m263.9 91.6c0 5.7-4.7 10.4-10.4 10.4-5.8 0-10.4-4.7-10.4-10.4 0-5.7 4.6-10.4 10.4-10.4 5.7 0 10.4 4.7 10.4 10.4z"/>
		<path id="Layer" class="s0" d="m344.8 91.6c0 5.7-4.7 10.4-10.4 10.4-5.7 0-10.4-4.7-10.4-10.4 0-5.7 4.7-10.4 10.4-10.4 5.7 0 10.4 4.7 10.4 10.4z"/>
		<path id="Layer" class="s0" d="m425.7 91.6c0 5.7-4.6 10.4-10.4 10.4-5.7 0-10.4-4.7-10.4-10.4 0-5.7 4.7-10.4 10.4-10.4 5.8 0 10.4 4.7 10.4 10.4z"/>
		<path id="Layer" class="s0" d="m21.1 172.5c0 5.8-4.7 10.4-10.4 10.4-5.8 0-10.4-4.6-10.4-10.4 0-5.7 4.6-10.4 10.4-10.4 5.7 0 10.4 4.7 10.4 10.4z"/>
		<path id="Layer" class="s0" d="m102 172.5c0 5.8-4.7 10.4-10.4 10.4-5.7 0-10.4-4.6-10.4-10.4 0-5.7 4.7-10.4 10.4-10.4 5.7 0 10.4 4.7 10.4 10.4z"/>
		<path id="Layer" class="s0" d="m182.9 172.5c0 5.8-4.6 10.4-10.4 10.4-5.7 0-10.4-4.6-10.4-10.4 0-5.7 4.7-10.4 10.4-10.4 5.8 0 10.4 4.7 10.4 10.4z"/>
		<path id="Layer" class="s0" d="m263.9 172.5c0 5.8-4.7 10.4-10.4 10.4-5.8 0-10.4-4.6-10.4-10.4 0-5.7 4.6-10.4 10.4-10.4 5.7 0 10.4 4.7 10.4 10.4z"/>
		<path id="Layer" class="s0" d="m344.8 172.5c0 5.8-4.7 10.4-10.4 10.4-5.7 0-10.4-4.6-10.4-10.4 0-5.7 4.7-10.4 10.4-10.4 5.7 0 10.4 4.7 10.4 10.4z"/>
		<path id="Layer" class="s0" d="m425.7 172.5c0 5.8-4.6 10.4-10.4 10.4-5.7 0-10.4-4.6-10.4-10.4 0-5.7 4.7-10.4 10.4-10.4 5.8 0 10.4 4.7 10.4 10.4z"/>
		<path id="Layer" class="s0" d="m21.1 253.5c0 5.7-4.7 10.4-10.4 10.4-5.8 0-10.4-4.7-10.4-10.4 0-5.8 4.6-10.4 10.4-10.4 5.7 0 10.4 4.6 10.4 10.4z"/>
		<path id="Layer" class="s0" d="m102 253.5c0 5.7-4.7 10.4-10.4 10.4-5.7 0-10.4-4.7-10.4-10.4 0-5.8 4.7-10.4 10.4-10.4 5.7 0 10.4 4.6 10.4 10.4z"/>
		<path id="Layer" class="s0" d="m182.9 253.5c0 5.7-4.6 10.4-10.4 10.4-5.7 0-10.4-4.7-10.4-10.4 0-5.8 4.7-10.4 10.4-10.4 5.8 0 10.4 4.6 10.4 10.4z"/>
		<path id="Layer" class="s0" d="m263.9 253.5c0 5.7-4.7 10.4-10.4 10.4-5.8 0-10.4-4.7-10.4-10.4 0-5.8 4.6-10.4 10.4-10.4 5.7 0 10.4 4.6 10.4 10.4z"/>
		<path id="Layer" class="s0" d="m344.8 253.5c0 5.7-4.7 10.4-10.4 10.4-5.7 0-10.4-4.7-10.4-10.4 0-5.8 4.7-10.4 10.4-10.4 5.7 0 10.4 4.6 10.4 10.4z"/>
		<path id="Layer" class="s0" d="m425.7 253.5c0 5.7-4.6 10.4-10.4 10.4-5.7 0-10.4-4.7-10.4-10.4 0-5.8 4.7-10.4 10.4-10.4 5.8 0 10.4 4.6 10.4 10.4z"/>
		<path id="Layer" class="s0" d="m21.1 334.4c0 5.7-4.7 10.4-10.4 10.4-5.8 0-10.4-4.7-10.4-10.4 0-5.7 4.6-10.4 10.4-10.4 5.7 0 10.4 4.7 10.4 10.4z"/>
		<path id="Layer" class="s0" d="m102 334.4c0 5.7-4.7 10.4-10.4 10.4-5.7 0-10.4-4.7-10.4-10.4 0-5.7 4.7-10.4 10.4-10.4 5.7 0 10.4 4.7 10.4 10.4z"/>
		<path id="Layer" class="s0" d="m182.9 334.4c0 5.7-4.6 10.4-10.4 10.4-5.7 0-10.4-4.7-10.4-10.4 0-5.7 4.7-10.4 10.4-10.4 5.8 0 10.4 4.7 10.4 10.4z"/>
		<path id="Layer" class="s0" d="m263.9 334.4c0 5.7-4.7 10.4-10.4 10.4-5.8 0-10.4-4.7-10.4-10.4 0-5.7 4.6-10.4 10.4-10.4 5.7 0 10.4 4.7 10.4 10.4z"/>
		<path id="Layer" class="s0" d="m344.8 334.4c0 5.7-4.7 10.4-10.4 10.4-5.7 0-10.4-4.7-10.4-10.4 0-5.7 4.7-10.4 10.4-10.4 5.7 0 10.4 4.7 10.4 10.4z"/>
		<path id="Layer" class="s0" d="m425.7 334.4c0 5.7-4.6 10.4-10.4 10.4-5.7 0-10.4-4.7-10.4-10.4 0-5.7 4.7-10.4 10.4-10.4 5.8 0 10.4 4.7 10.4 10.4z"/>
		<path id="Layer" class="s0" d="m21.1 415.3c0 5.8-4.7 10.4-10.4 10.4-5.8 0-10.4-4.6-10.4-10.4 0-5.7 4.6-10.4 10.4-10.4 5.7 0 10.4 4.7 10.4 10.4z"/>
		<path id="Layer" class="s0" d="m102 415.3c0 5.8-4.7 10.4-10.4 10.4-5.7 0-10.4-4.6-10.4-10.4 0-5.7 4.7-10.4 10.4-10.4 5.7 0 10.4 4.7 10.4 10.4z"/>
		<path id="Layer" class="s0" d="m182.9 415.3c0 5.8-4.6 10.4-10.4 10.4-5.7 0-10.4-4.6-10.4-10.4 0-5.7 4.7-10.4 10.4-10.4 5.8 0 10.4 4.7 10.4 10.4z"/>
		<path id="Layer" class="s0" d="m263.9 415.3c0 5.8-4.7 10.4-10.4 10.4-5.8 0-10.4-4.6-10.4-10.4 0-5.7 4.6-10.4 10.4-10.4 5.7 0 10.4 4.7 10.4 10.4z"/>
		<path id="Layer" class="s0" d="m344.8 415.3c0 5.8-4.7 10.4-10.4 10.4-5.7 0-10.4-4.6-10.4-10.4 0-5.7 4.7-10.4 10.4-10.4 5.7 0 10.4 4.7 10.4 10.4z"/>
		<path id="Layer" class="s0" d="m425.7 415.3c0 5.8-4.6 10.4-10.4 10.4-5.7 0-10.4-4.6-10.4-10.4 0-5.7 4.7-10.4 10.4-10.4 5.8 0 10.4 4.7 10.4 10.4z"/>
	</g>
</svg>